<svg id="Layer_1" data-name="Layer 1" xmlns="http://www.w3.org/2000/svg" xmlns:xlink="http://www.w3.org/1999/xlink" viewBox="0 0 34.53 28.36"><defs><style>.cls-1{fill:none;}.cls-2{clip-path:url(#clip-path);}.cls-3{clip-path:url(#clip-path-2);}.cls-4{fill:url(#linear-gradient);}.cls-5{clip-path:url(#clip-path-3);}.cls-6{fill:url(#linear-gradient-2);}.cls-7{clip-path:url(#clip-path-4);}.cls-8{fill:url(#linear-gradient-3);}.cls-9{clip-path:url(#clip-path-5);}.cls-10{fill:url(#linear-gradient-4);}.cls-11{fill:#508e3a;}.cls-12{clip-path:url(#clip-path-7);}.cls-13{fill:url(#linear-gradient-5);}.cls-14{clip-path:url(#clip-path-8);}.cls-15{fill:url(#linear-gradient-6);}.cls-16{clip-path:url(#clip-path-9);}.cls-17{fill:url(#linear-gradient-7);}</style><clipPath id="clip-path" transform="translate(1.45 -2.81)"><rect class="cls-1" width="32" height="32"/></clipPath><clipPath id="clip-path-2" transform="translate(1.45 -2.81)"><path class="cls-1" d="M16.17,18.66c-.91,1.4-3.59,4.46-3.59,4.46a7.85,7.85,0,0,1-7.15,2.72C-.24,24.78.66,18.66.66,18.66a8.37,8.37,0,0,0,1.52,8.77c4.32,3.74,9,0,9,0C14.13,25.35,17,20.77,17,20.77c3.22-3.47,4.84-.52,4.84-.52.16-2.27-.6-2.95-.6-2.95a2.52,2.52,0,0,0-1.77-.78c-1.8,0-3.26,2.14-3.26,2.14"/></clipPath><linearGradient id="linear-gradient" y1="-1.51" x2="1" y2="-1.51" gradientTransform="matrix(21.82, 0, 0, -21.82, 1.45, -12)" gradientUnits="userSpaceOnUse"><stop offset="0" stop-color="#f0e686"/><stop offset="0" stop-color="#eee271"/><stop offset="0.3" stop-color="#b8973c"/><stop offset="0.61" stop-color="#eeeb87"/><stop offset="1" stop-color="#ba9a40"/></linearGradient><clipPath id="clip-path-3" transform="translate(1.45 -2.81)"><path class="cls-1" d="M20,9.12c1.05-2.67,2.18-3.35,2.18-3.35a3,3,0,0,0-.51,2.84l.51,5.58C18.87,11.73,20,9.12,20,9.12m-1.73,1c-1.41,3.7,1.1,5.11,1.1,5.11.8.67,3.09,2.15,3.09,2.15L22.42,19c-.26,3.21-2.21,4.23-2.21,4.23-1,.45-1.31,2.29-1.31,2.29,2.13-2.12,6.81.71,6.81.71a8,8,0,0,1-4.51,1.56,2.45,2.45,0,0,1-2.72-2.21l-.09-5.47-1.16,1.27V26a3.25,3.25,0,0,0,1.53,2.84c3.57,1.42,7.4-1.84,7.4-1.84,2.56-2.13,4.4-1.93,4.4-1.93,1.39.2.62.91.62.91a3,3,0,0,1-2.41-.17l-1.48,1c5.79,1.62,4.61-1.66,4.61-1.66-1.43-1.4-4,0-4,0-4.66-2.8-5.79-2.58-5.79-2.58a4.8,4.8,0,0,0,.82-2.83l.05-5.6a52.66,52.66,0,0,1,.87-11.31,32.39,32.39,0,0,0-5.5,7.33"/></clipPath><linearGradient id="linear-gradient-2" y1="-2.2" y2="-2.2" gradientTransform="matrix(14.77, 0, 0, -14.77, 18.68, -18.81)" xlink:href="#linear-gradient"/><clipPath id="clip-path-4" transform="translate(1.45 -2.81)"><path class="cls-1" d="M23.47,18c3.77,1.84,3.32,4.51,3.32,4.51,2.49-4.29-3.32-7.46-3.32-7.46Z"/></clipPath><linearGradient id="linear-gradient-3" y1="-8.12" y2="-8.12" gradientTransform="matrix(3.94, 0, 0, -3.94, 24.92, -16.03)" xlink:href="#linear-gradient"/><clipPath id="clip-path-5" transform="translate(1.45 -2.81)"><path class="cls-1" d="M23.89,21.53a.9.9,0,1,0,.89-.9.9.9,0,0,0-.89.9"/></clipPath><linearGradient id="linear-gradient-4" y1="-17.81" y2="-17.81" gradientTransform="matrix(1.8, 0, 0, -1.8, 25.34, -13.28)" xlink:href="#linear-gradient"/><clipPath id="clip-path-7" transform="translate(1.45 -2.81)"><path class="cls-1" d="M5.43,17.77c1.76-.23,3,2.27,3,2.27a2.89,2.89,0,0,1,2.95-2.27,8.39,8.39,0,0,0-3-3.18,7.8,7.8,0,0,0-2.92,3.18"/></clipPath><linearGradient id="linear-gradient-5" y1="-5.42" y2="-5.42" gradientTransform="matrix(5.9, 0, 0, -5.9, 6.88, -17.5)" xlink:href="#linear-gradient"/><clipPath id="clip-path-8" transform="translate(1.45 -2.81)"><path class="cls-1" d="M8.37,24.33a11.6,11.6,0,0,0,0-3.27,12.88,12.88,0,0,0,0,3.27"/></clipPath><linearGradient id="linear-gradient-6" y1="-155.75" y2="-155.75" gradientTransform="matrix(0.21, 0, 0, -0.21, 9.72, -12.12)" xlink:href="#linear-gradient"/><clipPath id="clip-path-9" transform="translate(1.45 -2.81)"><path class="cls-1" d="M8.38,13.47a12.13,12.13,0,0,0,0-3.27,12.86,12.86,0,0,0,0,3.27"/></clipPath><linearGradient id="linear-gradient-7" y1="-155.74" y2="-155.74" gradientTransform="matrix(0.21, 0, 0, -0.21, 9.73, -22.98)" xlink:href="#linear-gradient"/></defs><g class="cls-2"><g class="cls-3"><rect class="cls-4" y="13.71" width="23.41" height="14.66"/></g><g class="cls-5"><rect class="cls-6" x="18.35" width="16.18" height="27.44"/></g><g class="cls-7"><rect class="cls-8" x="24.92" y="12.23" width="5.82" height="7.46"/></g><g class="cls-9"><rect class="cls-10" x="25.34" y="17.82" width="1.8" height="1.8"/></g><g class="cls-2"><path class="cls-11" d="M8.79,14a.41.41,0,0,1-.41.41.41.41,0,1,1,0-.81.41.41,0,0,1,.41.4" transform="translate(1.45 -2.81)"/><path class="cls-11" d="M8.79,20.56a.41.41,0,0,1-.41.4.41.41,0,1,1,0-.81.41.41,0,0,1,.41.41" transform="translate(1.45 -2.81)"/></g><g class="cls-12"><rect class="cls-13" x="6.88" y="11.78" width="5.9" height="5.45"/></g><g class="cls-14"><rect class="cls-15" x="9.59" y="18.25" width="0.46" height="3.27"/></g><g class="cls-16"><rect class="cls-17" x="9.59" y="7.38" width="0.46" height="3.27"/></g></g></svg>